<?xml version="1.0" standalone="no"?>
<!DOCTYPE svg PUBLIC "-//W3C//DTD SVG 20010904//EN"
 "http://www.w3.org/TR/2001/REC-SVG-20010904/DTD/svg10.dtd">
<svg version="1.0" xmlns="http://www.w3.org/2000/svg"
 width="426.000000pt" height="383.000000pt" viewBox="0 0 426.000000 383.000000"
 preserveAspectRatio="xMidYMid meet">

<g transform="translate(0.000000,383.000000) scale(0.100000,-0.100000)"
fill="#000000" stroke="none">
<path d="M1056 3715 c29 -33 77 -84 107 -113 l56 -52 -77 -39 c-156 -78 -313
-116 -448 -109 l-87 5 129 -65 129 -64 213 -217 c168 -171 206 -205 183 -165
-76 127 -107 228 -89 291 8 29 24 44 100 93 103 67 157 83 264 78 l69 -3 7
-56 c11 -90 46 -214 86 -307 119 -274 334 -446 622 -496 l75 -13 -95 -7 c-52
-4 -179 -13 -282 -20 l-188 -12 -97 61 c-125 78 -182 110 -163 93 9 -7 59 -48
113 -92 58 -46 94 -83 90 -90 -3 -6 -15 -24 -26 -39 -10 -16 -17 -30 -15 -32
2 -2 32 4 66 15 56 18 212 43 220 36 1 -2 -3 -15 -9 -30 -17 -37 -6 -41 38
-12 71 47 247 83 645 132 161 19 176 23 93 19 l-100 -5 55 22 c213 82 341 266
373 534 l11 90 60 -8 c60 -9 62 -10 148 -101 l87 -92 -24 64 c-14 36 -24 65
-22 67 1 1 54 -29 117 -67 107 -63 237 -125 246 -116 3 2 -52 50 -121 106 -69
56 -125 106 -125 112 0 7 12 8 33 4 64 -14 19 4 -148 59 -472 155 -961 261
-1468 320 l-128 15 -126 121 c-69 66 -128 119 -130 116 -2 -2 11 -26 30 -53
34 -47 91 -153 85 -157 -2 -1 -64 1 -138 5 -107 4 -146 10 -190 28 -58 24
-185 106 -260 169 l-45 37 51 -60z m1037 -430 c67 -8 138 -18 158 -21 l36 -5
-5 -80 c-8 -134 27 -256 91 -319 25 -24 39 -30 74 -30 88 0 151 110 161 278 4
83 7 92 25 92 25 0 274 -56 310 -69 25 -10 27 -14 21 -53 -32 -232 -122 -359
-295 -419 -53 -18 -85 -22 -184 -22 -138 1 -240 23 -345 75 -85 42 -213 168
-264 260 -42 75 -90 208 -104 288 l-10 53 105 -7 c57 -4 159 -13 226 -21z
m364 -52 c130 -21 132 -24 115 -148 -13 -97 -37 -158 -77 -197 -34 -34 -55
-35 -93 -3 -57 48 -94 185 -84 313 5 61 -5 58 139 35z"/>
<path d="M2938 2513 c6 -2 18 -2 25 0 6 3 1 5 -13 5 -14 0 -19 -2 -12 -5z"/>
<path d="M152 1787 l-142 -143 2 -329 3 -330 93 -3 92 -3 0 146 0 145 235 0
234 0 3 -142 3 -143 90 0 90 0 3 473 2 472 -283 0 -282 0 -143 -143z m518
-187 l0 -140 -235 0 -235 0 0 41 c0 37 7 48 93 140 l92 99 143 0 142 0 0 -140z"/>
<path d="M995 1918 c-3 -7 -4 -220 -3 -473 l3 -460 92 -3 93 -3 2 316 3 315
235 -313 235 -312 93 -3 92 -3 0 476 0 475 -95 0 -95 0 -2 -310 -3 -311 -230
308 -231 308 -92 3 c-68 2 -94 -1 -97 -10z"/>
<path d="M1975 1918 c-3 -7 -4 -220 -3 -473 l3 -460 93 -3 92 -3 0 476 0 475
-90 0 c-63 0 -92 -4 -95 -12z"/>
<path d="M2300 1455 l0 -476 93 3 92 3 5 313 5 313 120 -175 120 -175 82 -1
81 0 119 175 118 174 5 -312 5 -312 93 -3 92 -3 0 476 0 475 -89 0 -90 0 -167
-230 -168 -229 -31 42 c-16 24 -90 127 -164 230 l-135 187 -93 0 -93 0 0 -475z"/>
<path d="M3470 1455 l0 -475 395 0 395 0 0 95 0 95 -300 0 -300 0 0 95 0 95
280 0 280 0 0 95 0 95 -280 0 -280 0 0 95 0 95 300 0 300 0 0 95 0 95 -395 0
-395 0 0 -475z"/>
<path d="M1070 295 l0 -265 125 0 125 0 0 265 0 265 -125 0 -125 0 0 -265z
m178 148 c-22 -54 -43 -102 -47 -106 -7 -7 -91 175 -91 196 0 4 40 7 89 7 l90
0 -41 -97z m60 -255 l-3 -113 -26 55 c-14 30 -36 81 -49 112 l-23 57 49 113
49 113 3 -112 c1 -62 1 -164 0 -225z m-169 220 c22 -53 41 -104 41 -112 0 -8
-20 -61 -45 -118 l-44 -103 -1 219 c0 121 2 217 4 215 2 -2 22 -48 45 -101z
m101 -238 c22 -52 40 -100 40 -107 0 -10 -21 -13 -85 -13 -47 0 -85 3 -85 8 0
11 83 212 87 208 2 -1 21 -45 43 -96z"/>
<path d="M1810 295 l0 -265 125 0 125 0 0 265 0 265 -125 0 -125 0 0 -265z
m210 237 c0 -10 -78 -193 -85 -200 -2 -3 -9 6 -14 19 -5 13 -25 61 -45 107
l-35 82 89 0 c50 0 90 -4 90 -8z m20 -239 l-1 -218 -44 103 c-25 57 -45 110
-45 118 0 14 81 214 87 214 2 0 3 -98 3 -217z m-160 106 l43 -101 -23 -56
c-13 -32 -34 -79 -46 -107 l-23 -50 0 208 c-1 114 1 207 2 207 2 0 23 -45 47
-101z m99 -233 c23 -54 41 -102 41 -107 0 -5 -38 -9 -85 -9 -61 0 -85 3 -85
13 0 13 82 209 86 205 1 -2 20 -47 43 -102z"/>
<path d="M2545 547 c-3 -7 -4 -125 -3 -262 l3 -250 128 -3 127 -3 0 266 0 265
-125 0 c-92 0 -127 -3 -130 -13z m212 -19 c-46 -119 -82 -197 -88 -191 -7 7
-89 192 -89 200 0 2 41 3 91 3 69 0 90 -3 86 -12z m21 -340 l-3 -113 -47 112
-47 112 47 109 47 109 3 -108 c1 -60 1 -160 0 -221z m-159 207 l42 -100 -46
-104 c-25 -58 -48 -107 -50 -110 -3 -2 -5 94 -5 214 0 121 4 215 8 210 5 -6
28 -55 51 -110z m100 -234 c22 -55 41 -102 41 -105 0 -3 -41 -6 -91 -6 -69 0
-90 3 -86 13 31 81 83 197 88 197 4 0 25 -45 48 -99z"/>
</g>
</svg>
